<svg width="40" height="41" viewBox="0 0 40 41" fill="none" xmlns="http://www.w3.org/2000/svg">
<path opacity="0.4" d="M31.6668 17.9468V29.8634C31.6168 34.6134 30.3168 35.8134 25.3668 35.8134H9.63355C4.60021 35.8134 3.3335 34.5634 3.3335 29.5968V17.9468C3.3335 13.4468 4.3835 11.9968 8.3335 11.7634C8.7335 11.7468 9.16688 11.7301 9.63355 11.7301H25.3668C30.4001 11.7301 31.6668 12.9801 31.6668 17.9468Z" fill="#80CC28"/>
<path d="M36.6668 12.0301V23.6801C36.6668 28.1801 35.6168 29.6301 31.6668 29.8635V17.9468C31.6668 12.9801 30.4001 11.7301 25.3668 11.7301H9.63355C9.16688 11.7301 8.7335 11.7468 8.3335 11.7635C8.3835 7.01348 9.68354 5.81348 14.6335 5.81348H30.3668C35.4001 5.81348 36.6668 7.06348 36.6668 12.0301Z" fill="#80CC28"/>
<path d="M11.6001 31.7468H8.7334C8.05007 31.7468 7.4834 31.1802 7.4834 30.4968C7.4834 29.8135 8.05007 29.2468 8.7334 29.2468H11.6001C12.2835 29.2468 12.8501 29.8135 12.8501 30.4968C12.8501 31.1802 12.3001 31.7468 11.6001 31.7468Z" fill="#80CC28"/>
<path d="M20.9164 31.7468H15.1831C14.4998 31.7468 13.9331 31.1802 13.9331 30.4968C13.9331 29.8135 14.4998 29.2468 15.1831 29.2468H20.9164C21.5998 29.2468 22.1664 29.8135 22.1664 30.4968C22.1664 31.1802 21.6164 31.7468 20.9164 31.7468Z" fill="#80CC28"/>
<path d="M31.6668 20.5801H3.3335V23.0801H31.6668V20.5801Z" fill="#80CC28"/>
</svg>
