<svg width="40" height="41" viewBox="0 0 40 41" fill="none" xmlns="http://www.w3.org/2000/svg">
<path opacity="0.4" d="M36.6668 13.8302V26.0802C36.1835 25.8469 35.6502 25.6802 35.0502 25.5802L34.5335 25.4969L34.1001 24.5969C33.1835 22.7302 31.6835 21.6469 30.0002 21.6469C28.3168 21.6469 26.8168 22.7302 25.9002 24.5969L25.4501 25.4969L24.9502 25.5802C22.9668 25.9135 21.5335 27.0135 21.0168 28.5802C20.5168 30.1635 21.0335 31.8968 22.4502 33.3302L22.9668 33.8469L22.9168 34.0469C22.5835 35.5302 22.7168 36.6635 23.0335 37.4802H13.0168C6.95016 37.4802 3.3335 33.8635 3.3335 27.7969V13.8302C3.3335 7.76352 6.95016 4.14685 13.0168 4.14685H26.9835C33.0502 4.14685 36.6668 7.76352 36.6668 13.8302Z" fill="#FB3F6C"/>
<path d="M31.8667 25.7135L32.4 26.7968C32.6667 27.3302 33.35 27.8302 33.9167 27.9302L34.6333 28.0468C36.8167 28.4135 37.3167 30.0135 35.7667 31.5802L35.1 32.2468C34.65 32.6968 34.4167 33.5635 34.55 34.1968L34.6333 34.5968C35.2333 37.2302 33.8333 38.2468 31.55 36.8635L31.0667 36.5635C30.4834 36.2135 29.5166 36.2135 28.9333 36.5635L28.45 36.8635C26.15 38.2468 24.7667 37.2302 25.3667 34.5968L25.45 34.1968C25.5833 33.5802 25.35 32.6968 24.9 32.2468L24.2334 31.5802C22.6834 29.9968 23.1833 28.4135 25.3667 28.0468L26.0833 27.9302C26.6667 27.8302 27.3333 27.3302 27.6 26.7968L28.1333 25.7135C29.1667 23.6302 30.8333 23.6302 31.8667 25.7135Z" fill="#FB3F6C"/>
<path fill-rule="evenodd" clip-rule="evenodd" d="M26.8824 14.0088C27.428 14.4318 27.5275 15.217 27.1045 15.7626L23.2471 20.7388C22.2556 21.9927 20.4276 22.2213 19.1523 21.2359L19.1436 21.2291L16.0993 18.8336C15.9112 18.6908 15.6489 18.7263 15.506 18.9106C15.5059 18.9107 15.5062 18.9104 15.506 18.9106L11.5402 24.0595C11.1189 24.6065 10.334 24.7083 9.78711 24.2871C9.24018 23.8658 9.1383 23.0809 9.55956 22.534L13.5274 17.3825C14.5173 16.1015 16.3526 15.8699 17.6309 16.8577L17.6396 16.8644L20.6838 19.2599C20.8739 19.4043 21.1417 19.3671 21.2835 19.1913L25.1286 14.2309C25.5516 13.6853 26.3368 13.5859 26.8824 14.0088Z" fill="#FB3F6C"/>
</svg>
