<svg width="40" height="41" viewBox="0 0 40 41" fill="none" xmlns="http://www.w3.org/2000/svg">
<path opacity="0.4" d="M35.6166 19.7967V29.7801C35.6166 34.3801 31.8833 38.1134 27.2833 38.1134H12.7166C8.11663 38.1134 4.3833 34.3801 4.3833 29.7801V19.9134C5.64997 21.2801 7.44997 22.0634 9.39997 22.0634C11.5 22.0634 13.5166 21.0134 14.7833 19.3301C15.9166 21.0134 17.85 22.0634 20 22.0634C22.1333 22.0634 24.0333 21.0634 25.1833 19.3967C26.4666 21.0467 28.45 22.0634 30.5166 22.0634C32.5333 22.0634 34.3666 21.2467 35.6166 19.7967Z" fill="#593FFB"/>
<path d="M24.9832 2.89685H14.9832L13.7499 15.1635C13.6499 16.2968 13.8166 17.3635 14.2332 18.3302C15.1999 20.5969 17.4666 22.0635 19.9999 22.0635C22.5666 22.0635 24.7833 20.6302 25.7833 18.3469C26.0833 17.6302 26.2666 16.7969 26.2833 15.9468V15.6302L24.9832 2.89685Z" fill="#593FFB"/>
<path opacity="0.6" d="M37.2666 14.5969L36.7833 9.98018C36.0833 4.94685 33.7999 2.89685 28.9166 2.89685H22.5166L23.7499 15.3969C23.7666 15.5635 23.7833 15.7469 23.7833 16.0635C23.8833 16.9302 24.1499 17.7302 24.5499 18.4468C25.7499 20.6469 28.0833 22.0635 30.5166 22.0635C32.7333 22.0635 34.7333 21.0802 35.9833 19.3468C36.9833 18.0135 37.4333 16.3302 37.2666 14.5969Z" fill="#593FFB"/>
<path opacity="0.6" d="M10.9832 2.89685C6.08324 2.89685 3.81657 4.94685 3.0999 10.0302L2.6499 14.6135C2.48324 16.3968 2.96657 18.1302 4.01657 19.4802C5.28324 21.1302 7.23324 22.0635 9.39991 22.0635C11.8332 22.0635 14.1666 20.6469 15.3499 18.4802C15.7832 17.7302 16.0666 16.8635 16.1499 15.9635L17.4499 2.91352H10.9832V2.89685Z" fill="#593FFB"/>
<path d="M18.9169 28.5801C16.8002 28.7968 15.2002 30.5968 15.2002 32.7301V38.1134H24.7835V33.3134C24.8002 29.8301 22.7502 28.1801 18.9169 28.5801Z" fill="#593FFB"/>
</svg>
